#!OML:ASF E:\acrobat2\Project_11_07_03\Capture day 1\Session 1\Acrobat.ASF
:FULLY-SPECIFIED
:DEGREES
371
root 10.9451 17.1671 -28.0824 28.514 -54.7013 -26.194
lowerback 5.64723 1.48109 2.49542
upperback -0.758206 1.8743 -5.67983
thorax -3.69038 0.796228 -7.53262
lowerneck -2.80158 11.6717 5.42089
upperneck 2.49371 15.6904 -9.60788
head 2.63456 7.6808 -3.45046
rclavicle 5.24792e-014 -3.81667e-014
rhumerus 5.14765 -47.6586 -0.370403
rradius 21.3592
rwrist 8.09917
rhand -18.1262 -48.9392
rfingers 7.12502
rthumb 8.14855 -78.7621
lclavicle 5.24792e-014 -3.81667e-014
lhumerus 16.2471 10.3775 0.188389
lradius 22.4341
lwrist 10.7558
lhand -22.6279 -3.73174
lfingers 7.12502
lthumb 3.80246 26.2141
rfemur 3.85018 -12.2792 19.5076
rtibia 21.3234
rfoot -31.4165 -25.8413
rtoes -19.2554
lfemur -40.19 27.196 8.5553
ltibia 52.0409
lfoot -25.7737 10.5491
ltoes 42.0225
372
root 10.9396 17.1104 -27.9706 28.9042 -54.1114 -26.4305
lowerback 5.86794 1.56638 2.13693
upperback -0.655552 1.94312 -5.99315
thorax -3.69904 0.832842 -7.67492
lowerneck -2.78672 11.3241 5.92535
upperneck 2.39429 15.1947 -9.42267
head 2.5854 7.44985 -3.51078
rclavicle -2.54444e-014 -1.59028e-014
rhumerus 6.77894 -49.159 -1.90861
rradius 21.4181
rwrist 9.1678
rhand -18.0564 -48.6805
rfingers 7.12502
rthumb 8.21587 -78.5008
lclavicle -2.54444e-014 -1.59028e-014
lhumerus 16.5064 10.716 0.370935
lradius 22.4098
lwrist 10.559
lhand -22.6202 -3.28656
lfingers 7.12502
lthumb 3.80983 26.6591
rfemur 3.44683 -12.9303 19.369
rtibia 22.3004
rfoot -31.2775 -25.4173
rtoes -19.8834
lfemur -41.6065 27.8606 7.78396
ltibia 53.4466
lfoot -26.2975 10.6163
ltoes 41.663
373
root 10.9342 17.0493 -27.8501 29.2673 -53.4697 -26.6292
lowerback 6.07138 1.68371 1.86458
upperback -0.542555 2.05993 -6.31019
thorax -3.67703 0.892664 -7.87535
lowerneck -3.65955 11.7184 4.82479
upperneck 2.15243 15.7076 -9.13389
head 2.56735 7.67915 -3.14723
rclavicle 3.81667e-014 1.90833e-014
rhumerus 4.62177 -43.3391 1.41484
rradius 22.5686
rwrist 2.22183
rhand -18.0323 -49.566
rfingers 7.12502
rthumb 8.23912 -79.3853
lclavicle 3.81667e-014 1.90833e-014
lhumerus 16.7349 10.4504 0.342194
lradius 22.4981
lwrist 10.9502
lhand -22.5156 -3.11703
lfingers 7.12502
lthumb 3.91091 26.8268
rfemur 3.10128 -13.6281 19.1705
rtibia 23.191
rfoot -31.014 -25.0132
rtoes -20.8433
lfemur -43.0058 28.3457 6.99611
ltibia 54.741
lfoot -27.0381 10.4323
ltoes 42.2354
374
root 10.9336 16.9902 -27.7346 29.944 -52.6948 -27.1013
lowerback 6.29509 1.78106 1.71133
upperback -0.493008 2.16101 -6.53865
thorax -3.73372 0.940536 -8.05242
lowerneck -3.67635 11.7959 4.85376
upperneck 2.01631 15.8041 -9.26869
head 2.5487 7.72708 -3.19217
rclavicle -8.74653e-015 -4.45278e-014
rhumerus 5.46582 -43.5256 0.96847
rradius 22.9005
rwrist 1.76755
rhand -17.8507 -49.8016
rfingers 7.12502
rthumb 8.41438 -79.614
lclavicle -8.74653e-015 -4.45278e-014
lhumerus 17.2384 10.7421 0.755834
lradius 22.2924
lwrist 10.7195
lhand -22.623 -2.90928
lfingers 7.12502
lthumb 3.80717 27.0365
rfemur 2.59236 -14.1918 19.3812
rtibia 24.0358
rfoot -30.6546 -25.0983
rtoes -22.6893
lfemur -44.6541 28.9329 6.27998
ltibia 56.1869
lfoot -28.0382 10.6242
ltoes 41.7588
375
root 10.9319 16.9329 -27.6196 30.2633 -52.0921 -27.0096
lowerback 6.43466 1.82768 1.04665
upperback -0.456074 2.14616 -6.83439
thorax -3.78992 0.937662 -7.99161
lowerneck -3.58889 11.8463 4.68404
upperneck 1.57068 15.8467 -9.23955
head 2.36639 7.76082 -3.16885
rclavicle -3.18055e-014 6.04305e-014
rhumerus 8.65661 -46.5459 -1.72485
rradius 22.2843
rwrist 4.4814
rhand -17.5778 -49.6315
rfingers 7.12502
rthumb 8.67775 -79.4332
lclavicle -3.18055e-014 6.04305e-014
lhumerus 17.28 10.3124 0.775837
lradius 22.4387
lwrist 11.8048
lhand -23.5836 -2.34587
lfingers 7.12502
lthumb 2.87946 27.6144
rfemur 2.02739 -14.7862 19.1959
rtibia 24.8591
rfoot -30.4389 -25.1183
rtoes -24.1504
lfemur -46.4601 29.5141 4.97172
ltibia 57.6806
lfoot -28.6064 11.8609
ltoes 38.1957
376
root 10.926 16.873 -27.4965 30.5727 -51.505 -26.8638
lowerback 6.44567 1.90616 0.31735
upperback -0.402812 2.17304 -7.10572
thorax -3.75417 0.959863 -7.8635
lowerneck -3.48525 11.3812 4.66867
upperneck 1.08003 15.1855 -8.95177
head 2.10385 7.45405 -3.13364
rclavicle 1.20066e-013 -3.49861e-014
rhumerus 8.14547 -44.3772 -0.609409
rradius 23.1039
rwrist 1.43353
rhand -17.6676 -49.7687
rfingers 7.12502
rthumb 8.59109 -79.5739
lclavicle 1.20066e-013 -3.49861e-014
lhumerus 17.4525 10.8801 1.29908
lradius 22.3593
lwrist 11.0174
lhand -23.5945 -2.27165
lfingers 7.12502
lthumb 2.86897 27.6888
rfemur 1.51786 -15.2911 18.9635
rtibia 25.62
rfoot -30.7096 -24.7081
rtoes -23.8284
lfemur -48.2651 30.0165 3.59323
ltibia 59.1342
lfoot -29.1867 12.8167
ltoes 34.9061
377
root 10.9188 16.8061 -27.3687 31.5165 -50.6098 -27.6797
lowerback 6.59993 1.99474 0.350966
upperback -0.33099 2.28451 -7.21847
thorax -3.74501 1.01408 -8.02143
lowerneck -3.83931 11.4846 4.61112
upperneck 1.20269 15.3249 -8.94144
head 2.21157 7.51169 -3.08697
rclavicle -1.90833e-014 -1.27222e-014
rhumerus 11.3247 -46.8971 -3.1872
rradius 22.5025
rwrist 3.7337
rhand -17.8006 -49.4267
rfingers 7.12502
rthumb 8.46274 -79.2372
lclavicle -1.90833e-014 -1.27222e-014
lhumerus 17.9428 11.9138 2.19112
lradius 22.0243
lwrist 9.64392
lhand -23.5993 -2.43093
lfingers 7.12502
lthumb 2.86437 27.5296
rfemur 1.20613 -15.6564 19.521
rtibia 26.2304
rfoot -30.7461 -24.3493
rtoes -23.8477
lfemur -49.8393 30.5446 3.10732
ltibia 60.5
lfoot -30.413 12.2608
ltoes 36.4156
378
root 10.9112 16.7392 -27.2396 32.4315 -49.6672 -28.445
lowerback 6.82452 2.03025 0.425012
upperback -0.278888 2.32265 -7.36167
thorax -3.80314 1.02821 -8.23525
lowerneck -4.11395 11.4804 4.68689
upperneck 1.12642 15.3081 -9.05855
head 2.25269 7.49689 -3.12401
rclavicle -4.6118e-014 7.95139e-014
rhumerus 12.3554 -46.784 -3.69251
rradius 22.7888
rwrist 2.99691
rhand -17.6068 -49.2564
rfingers 7.12502
rthumb 8.64979 -79.0592
lclavicle -4.6118e-014 7.95139e-014
lhumerus 18.4165 12.1433 2.68886
lradius 21.7793
lwrist 9.62002
lhand -24.7454 -1.60567
lfingers 7.12502
lthumb 1.75744 28.3668
rfemur 0.92397 -15.9311 20.131
rtibia 26.7179
rfoot -30.5273 -24.2744
rtoes -25.1146
lfemur -51.5022 31.0605 2.56556
ltibia 61.9222
lfoot -31.6498 12.1332
ltoes 36.2882
379
root 10.9015 16.6739 -27.1063 33.0549 -48.899 -28.6298
lowerback 6.85464 2.10944 0.0744597
upperback -0.284098 2.37852 -7.61039
thorax -3.82225 1.05633 -8.31086
lowerneck -4.04928 11.3394 4.5746
upperneck 0.697501 15.0971 -9.07433
head 2.07384 7.40335 -3.13917
rclavicle -4.6118e-014 7.63333e-014
rhumerus 13.5296 -46.7533 -4.26914
rradius 22.9928
rwrist 2.53733
rhand -17.5008 -49.1216
rfingers 7.12502
rthumb 8.75205 -78.9202
lclavicle -4.6118e-014 7.63333e-014
lhumerus 19.3911 13.4695 3.91969
lradius 20.9039
lwrist 8.20738
lhand -25.2386 -1.29702
lfingers 7.12502
lthumb 1.28115 28.6789
rfemur 0.467993 -16.1754 20.3217
rtibia 27.2024
rfoot -30.6878 -24.064
rtoes -25.1512
lfemur -53.3764 31.5115 1.44078
ltibia 63.3784
lfoot -32.483 12.3179
ltoes 35.0386
380
root 10.8921 16.6064 -26.968 33.7258 -48.0474 -28.9041
lowerback 6.93732 2.1879 -0.176046
upperback -0.316744 2.44027 -7.8228
thorax -3.89643 1.0847 -8.41057
lowerneck -3.99732 11.1179 4.2988
upperneck 0.397929 14.7861 -8.79679
head 1.89137 7.26123 -3.03268
rclavicle -1.90833e-014 3.81667e-014
rhumerus 14.6552 -46.6034 -4.76358
rradius 23.2166
rwrist 1.94584
rhand -17.6137 -49.1192
rfingers 7.12502
rthumb 8.64318 -78.9223
lclavicle -1.90833e-014 3.81667e-014
lhumerus 20.206 14.6927 5.2353
lradius 20.3119
lwrist 6.80974
lhand -25.9957 -1.26324
lfingers 7.12502
lthumb 0.549916 28.7158
rfemur 0.0941867 -16.3706 20.6422
rtibia 27.5709
rfoot -30.8974 -23.8636
rtoes -24.3651
lfemur -55.101 31.8054 0.467559
ltibia 64.6793
lfoot -33.1162 12.6499
ltoes 33.4572
381
root 10.8837 16.5396 -26.8279 34.2266 -47.095 -29.0107
lowerback 7.13952 2.17165 -0.541483
upperback -0.2987 2.36245 -8.0094
thorax -4.01075 1.04563 -8.40699
lowerneck -4.33153 10.959 4.07112
upperneck 0.41986 14.5693 -8.41917
head 1.88695 7.15164 -2.86455
rclavicle -2.70347e-014 3.49861e-014
rhumerus 16.5585 -47.1632 -6.15165
rradius 23.3303
rwrist 2.12425
rhand -17.6709 -49.062
rfingers 7.12502
rthumb 8.58795 -78.8674
lclavicle -2.70347e-014 3.49861e-014
lhumerus 21.0866 16.5277 6.90222
lradius 19.6536
lwrist 4.96922
lhand -26.7072 -1.32709
lfingers 7.12502
lthumb -0.137315 28.6526
rfemur -0.126231 -16.5566 20.9212
rtibia 27.8069
rfoot -30.989 -23.8194
rtoes -24.2321
lfemur -56.7994 31.8355 -0.574382
ltibia 65.921
lfoot -33.7924 13.2006
ltoes 31.2072
382
root 10.8756 16.4733 -26.6827 34.6614 -46.0864 -28.9417
lowerback 7.25856 2.11513 -0.979307
upperback -0.221137 2.22961 -8.21706
thorax -4.02493 0.9834 -8.37124
lowerneck -4.90111 10.8295 3.8817
upperneck 0.416268 14.3881 -8.11435
head 1.92948 7.05473 -2.71239
rclavicle -2.8625e-014 2.8625e-014
rhumerus 18.4222 -47.6189 -7.51306
rradius 23.4464
rwrist 2.28129
rhand -17.6869 -48.9148
rfingers 7.12502
rthumb 8.57254 -78.7208
lclavicle -2.8625e-014 2.8625e-014
lhumerus 21.8661 18.0971 8.3943
lradius 19.1444
lwrist 3.6911
lhand -27.026 -1.02938
lfingers 7.12502
lthumb -0.445213 28.9499
rfemur -0.345315 -16.8564 21.0981
rtibia 28.0062
rfoot -30.9285 -23.8145
rtoes -24.8659
lfemur -58.6437 31.7542 -1.81071
ltibia 67.2204
lfoot -34.5889 13.6392
ltoes 29.4348
383
root 10.8516 16.4188 -26.4555 34.4764 -45.8675 -29.6182
lowerback 7.95708 2.42029 -0.968287
upperback 0.18278 2.59573 -8.52241
thorax -3.92954 1.16485 -8.77696
lowerneck -4.7499 10.7752 4.0545
upperneck -0.380934 14.2703 -8.41702
head 1.67537 7.01387 -2.87502
rclavicle -7.95139e-014 -8.26944e-014
rhumerus 19.2283 -47.076 -7.69007
rradius 23.8187
rwrist 1.31578
rhand -17.669 -48.838
rfingers 7.12502
rthumb 8.58976 -78.6433
lclavicle -7.95139e-014 -8.26944e-014
lhumerus 23.1406 20.5884 10.5913
lradius 18.3793
lwrist 1.26855
lhand -27.1573 -1.42627
lfingers 7.12502
lthumb -0.571999 28.5527
rfemur 1.01964 -16.5844 20.3395
rtibia 28.0559
rfoot -30.2784 -23.562
rtoes -26.1211
lfemur -57.8238 31.8505 -1.86298
ltibia 67.6084
lfoot -35.8399 14.0874
ltoes 28.3724
384
root 10.8495 16.3383 -26.3703 36.0155 -44.028 -29.2173
lowerback 7.27741 2.11514 -1.4542
upperback -0.141614 2.15876 -8.65803
thorax -3.96461 0.949826 -8.57292
lowerneck -4.84077 10.5748 4.04698
upperneck -0.830709 13.9741 -8.29245
head 1.51278 6.87768 -2.85675
rclavicle 3.18055e-015 2.22639e-014
rhumerus 22.4799 -48.6862 -10.5392
rradius 23.4558
rwrist 3.11837
rhand -17.6011 -48.6236
rfingers 7.12502
rthumb 8.65529 -78.4261
lclavicle 3.18055e-015 2.22639e-014
lhumerus 24.6176 22.7954 12.7585
lradius 17.4659
lwrist -0.782838
lhand -27.3138 -2.04604
lfingers 7.12502
lthumb -0.723191 27.9325
rfemur -0.808915 -16.9907 21.8885
rtibia 28.1414
rfoot -30.3797 -23.9789
rtoes -26.2211
lfemur -62.1684 31.6629 -3.92646
ltibia 69.6251
lfoot -36.4133 14.0216
ltoes 26.6416
385
root 10.8405 16.2816 -26.204 36.5464 -42.7612 -29.3748
lowerback 7.57855 2.08541 -1.44059
upperback -0.0294396 2.09309 -8.87412
thorax -4.01755 0.91279 -8.82726
lowerneck -5.31692 10.3083 3.77646
upperneck -0.868945 13.6146 -7.79253
head 1.49497 6.69832 -2.64465
rclavicle 1.27222e-014 0
rhumerus 22.6277 -47.9666 -10.1067
rradius 23.9356
rwrist 1.59768
rhand -17.6212 -48.4203
rfingers 7.12502
rthumb 8.63593 -78.2236
lclavicle 1.27222e-014 0
lhumerus 25.4598 22.9341 13.7572
lradius 17.3592
lwrist -0.719795
lhand -27.8455 -0.791904
lfingers 7.12502
lthumb -1.23673 29.1843
rfemur -0.770012 -17.0327 22.411
rtibia 27.9596
rfoot -29.9235 -24.2064
rtoes -26.2716
lfemur -63.5798 31.37 -4.71215
ltibia 70.5782
lfoot -36.95 15.0764
ltoes 21.5086
